# xmcd
#
# Track frame offsets: 
#        150
#        14375
#        34529
#        57074
#        70911
#        83269
#        99483
#        121133
#        142032
#        156674
#        172091
#        189592
#        207871
#        229091
#
# Disc length: 3269 seconds
#
# Revision: 1
# Processed by: cddbd v1.5.2PL0 Copyright (c) Steve Scherf et al.
# Submitted via: ExactAudioCopyFreeDBPlugin 1.0
#
DISCID=b70cc30e
DTITLE=Aaron Neville - Warm Your Heart
DYEAR=1991
DGENRE=Pop
TTITLE0=Louisana 1927
TTITLE1=everyoboby plays the fool
TTITLE2=it feels like rain
TTITLE3=somewhere somebody
TTITLE4=don't go please stay
TTITLE5=with you in mind
TTITLE6=that's the way she loves
TTITLE7=angola bound
TTITLE8=close your heart
TTITLE9=la vie dansante
TTITLE10=warm your heart
TTITLE11=i bid you goodnight
TTITLE12=ave maria
TTITLE13=don't konw much
EXTD=
EXTT0=
EXTT1=
EXTT2=
EXTT3=
EXTT4=
EXTT5=
EXTT6=
EXTT7=
EXTT8=
EXTT9=
EXTT10=
EXTT11=
EXTT12=
EXTT13=
PLAYORDER=
